<svg xmlns="http://www.w3.org/2000/svg" width="600" height="400" viewBox="0 0 600 400"><rect width="100%" height="100%" fill="#DDDDDD"/><path fill="#999999" d="M167.58 177.025h5.49l-11.67 37.6h-6.32l-8.22-25.69q-.34-.93-.62-2.29-.16.65-.31 1.23-.16.57-.34 1.06l-8.3 25.69h-6.34l-11.65-37.6h5.85q.91 0 1.52.43t.82 1.16l6.4 22.49q.21.83.4 1.81.2.97.4 2.04.21-1.09.46-2.06.25-.96.53-1.79l7.39-22.49q.2-.6.81-1.09.62-.5 1.5-.5h2.05q.91 0 1.49.45.57.44.85 1.14l7.36 22.49q.55 1.61.99 3.72.34-2.06.75-3.72l6.4-22.49q.16-.65.79-1.12.64-.47 1.52-.47m20.91 10.51q2.96 0 5.39.96t4.16 2.73 2.67 4.32q.93 2.54.93 5.69 0 3.17-.93 5.72-.94 2.55-2.67 4.34-1.73 1.8-4.16 2.76t-5.39.96q-2.99 0-5.44-.96-2.44-.96-4.17-2.76-1.73-1.79-2.68-4.34t-.95-5.72q0-3.15.95-5.69.95-2.55 2.68-4.32t4.17-2.73q2.45-.96 5.44-.96m0 22.54q3.33 0 4.93-2.24 1.59-2.23 1.59-6.55 0-4.31-1.59-6.58-1.6-2.26-4.93-2.26-3.38 0-5.01 2.28-1.62 2.27-1.62 6.56t1.62 6.54q1.63 2.25 5.01 2.25m23.74-20.51.39 3.01q1.24-2.39 2.96-3.76 1.72-1.36 4.06-1.36 1.84 0 2.96.81l-.42 4.81q-.13.46-.37.66-.25.19-.67.19-.39 0-1.15-.13-.77-.13-1.5-.13-1.06 0-1.9.32-.83.31-1.49.89-.66.59-1.17 1.42t-.95 1.9v16.43h-6.42v-26.68h3.77q.99 0 1.38.35.39.36.52 1.27m13.72-13.58h6.43v22.13h1.19q.65 0 1.03-.17t.77-.69l6.63-8.19q.41-.54.92-.83t1.31-.29h5.88l-8.3 9.91q-.88 1.17-1.92 1.79.55.39.98.91.42.52.81 1.12l8.9 12.95h-5.8q-.76 0-1.3-.25-.55-.24-.91-.89l-6.81-10.12q-.37-.6-.76-.78t-1.17-.18h-1.45v12.22h-6.43zm39.6 11.55q2.97 0 5.4.96t4.16 2.73 2.66 4.32q.94 2.54.94 5.69 0 3.17-.94 5.72-.93 2.55-2.66 4.34-1.73 1.8-4.16 2.76t-5.4.96q-2.99 0-5.43-.96-2.45-.96-4.17-2.76-1.73-1.79-2.68-4.34t-.95-5.72q0-3.15.95-5.69.95-2.55 2.68-4.32 1.72-1.77 4.17-2.73 2.44-.96 5.43-.96m0 22.54q3.33 0 4.93-2.24 1.6-2.23 1.6-6.55 0-4.31-1.6-6.58-1.6-2.26-4.93-2.26-3.38 0-5 2.28-1.63 2.27-1.63 6.56t1.63 6.54q1.62 2.25 5 2.25m34.63-22.13h6.43v26.68h-3.93q-1.27 0-1.61-1.17l-.44-2.13q-1.64 1.66-3.62 2.69-1.97 1.03-4.65 1.03-2.19 0-3.86-.75-1.68-.74-2.82-2.09-1.15-1.35-1.73-3.21-.59-1.86-.59-4.09v-16.96h6.42v16.96q0 2.44 1.14 3.78 1.13 1.34 3.39 1.34 1.66 0 3.12-.74 1.45-.74 2.75-2.04zm21.66 27.1q-3.48 0-5.34-1.97-1.86-1.96-1.86-5.42v-14.9h-2.73q-.52 0-.88-.33-.37-.34-.37-1.02v-2.55l4.29-.7 1.35-7.28q.13-.52.5-.8.36-.29.93-.29h3.33v8.4h7.13v4.57h-7.13v14.46q0 1.25.61 1.95t1.68.7q.6 0 1-.14t.7-.3.54-.3q.23-.14.46-.14.29 0 .47.14t.39.43l1.93 3.12q-1.41 1.17-3.23 1.77t-3.77.6m31.12-38.02v37.6h-7.02v-37.6zm13.81 37.6h-6.42v-26.68h3.92q1.25 0 1.64 1.17l.42 1.98q.7-.78 1.47-1.43.76-.65 1.64-1.12.87-.47 1.87-.74t2.19-.27q2.53 0 4.15 1.36 1.63 1.37 2.43 3.63.63-1.33 1.56-2.28.94-.94 2.06-1.54 1.11-.6 2.38-.89 1.26-.28 2.53-.28 2.21 0 3.93.67 1.71.68 2.88 1.98t1.78 3.17.61 4.29v16.98h-6.42v-16.98q0-2.55-1.12-3.83-1.11-1.29-3.27-1.29-.99 0-1.83.34-.85.34-1.49.97-.63.64-1 1.6-.36.96-.36 2.21v16.98h-6.45v-16.98q0-2.68-1.08-3.9t-3.16-1.22q-1.4 0-2.61.69t-2.25 1.88zm51.22-6.89v-4.5q-2.78.13-4.68.48t-3.04.9q-1.15.55-1.64 1.27-.49.73-.49 1.59 0 1.69 1 2.42t2.61.73q1.98 0 3.42-.72 1.44-.71 2.82-2.17m-13.57-14.01-1.15-2.06q4.61-4.21 11.08-4.21 2.34 0 4.19.77 1.84.76 3.12 2.13 1.27 1.36 1.93 3.26.67 1.9.67 4.16v16.85h-2.92q-.91 0-1.4-.27-.49-.28-.78-1.11l-.57-1.92q-1.02.91-1.98 1.6t-2 1.15q-1.04.47-2.22.72-1.19.25-2.62.25-1.69 0-3.12-.46-1.43-.45-2.47-1.36t-1.61-2.27q-.57-1.35-.57-3.14 0-1.02.34-2.02t1.1-1.91q.77-.91 1.99-1.71 1.22-.81 3.01-1.41 1.78-.6 4.14-.97 2.37-.38 5.41-.46v-1.56q0-2.68-1.14-3.96-1.15-1.29-3.31-1.29-1.56 0-2.58.36-1.03.37-1.81.82-.78.46-1.42.82-.63.37-1.41.37-.68 0-1.15-.36-.47-.35-.75-.81m35.62 6.91q1.19 0 2.08-.32.88-.33 1.47-.9.58-.57.88-1.38.3-.8.3-1.77 0-1.97-1.18-3.13-1.19-1.16-3.55-1.16-2.37 0-3.55 1.16t-1.18 3.13q0 .94.3 1.75.29.8.88 1.39.58.58 1.48.91.9.32 2.07.32m7.25 15.19q0-.78-.47-1.28-.46-.49-1.27-.77-.81-.27-1.88-.4-1.08-.13-2.29-.19-1.21-.07-2.5-.12t-2.51-.21q-1.06.6-1.73 1.41-.66.8-.66 1.87 0 .7.35 1.31t1.12 1.05q.77.45 1.99.69 1.22.25 2.99.25 1.79 0 3.09-.27 1.3-.28 2.15-.76.84-.48 1.23-1.14t.39-1.44m-1.27-26.97h7.67v2.4q0 1.14-1.38 1.4l-2.39.44q.54 1.38.54 3.02 0 1.97-.79 3.57t-2.2 2.72q-1.4 1.12-3.31 1.73t-4.12.61q-.78 0-1.51-.08t-1.43-.21q-1.25.76-1.25 1.69 0 .81.74 1.19.74.37 1.97.53 1.22.16 2.78.19 1.56.04 3.2.17 1.63.13 3.19.46 1.56.32 2.79 1.03 1.22.7 1.96 1.91t.74 3.1q0 1.77-.87 3.44-.87 1.66-2.52 2.96t-4.06 2.09q-2.4.8-5.47.8-3.02 0-5.25-.59-2.24-.58-3.72-1.56-1.48-.97-2.21-2.25-.73-1.27-.73-2.65 0-1.87 1.13-3.13t3.11-2.02q-1.07-.54-1.69-1.45-.63-.91-.63-2.4 0-.59.23-1.23.22-.64.65-1.26.42-.63 1.07-1.19.65-.55 1.54-1-2.03-1.09-3.19-2.91-1.15-1.82-1.15-4.26 0-1.98.79-3.58t2.21-2.73 3.35-1.73q1.94-.59 4.23-.59 1.71 0 3.22.35t2.76 1.02m16.79 9.36h12.12q0-1.24-.35-2.35-.35-1.1-1.05-1.94-.71-.83-1.78-1.31-1.08-.48-2.51-.48-2.79 0-4.38 1.59-1.6 1.58-2.05 4.49m16.38 3.88h-16.51q.16 2.05.73 3.55.57 1.49 1.51 2.47.94.97 2.22 1.45 1.29.48 2.85.48t2.69-.36 1.98-.81q.84-.44 1.48-.8.64-.37 1.23-.37.81 0 1.2.6l1.85 2.34q-1.07 1.25-2.4 2.09-1.32.85-2.76 1.36-1.45.5-2.94.71-1.5.21-2.9.21-2.78 0-5.18-.92-2.39-.93-4.16-2.73-1.76-1.81-2.78-4.48-1.01-2.66-1.01-6.17 0-2.73.88-5.14.89-2.4 2.54-4.18t4.03-2.82 5.37-1.04q2.52 0 4.65.8 2.13.81 3.67 2.36 1.53 1.54 2.4 3.79t.87 5.14q0 1.45-.31 1.96t-1.2.51"/></svg>